
      <svg data-logo="logo" xmlns="http://www.w3.org/2000/svg" viewBox="0 0 328 45">
        <g id="logogram" transform="translate(0, 2.5) rotate(0) "><path d="M43 31L31 40H5L7 35L12 31H29L32 35L40 11L45 7H50L43 31ZM43 5L38 9H21L18 5L10 29L5 33H0L7 9L19 0H45L43 5ZM24 13H35L29 31L26 27H15L21 9L24 13Z" fill="#297AFF"/></g>
        <g id="logotype" transform="translate(56, 1)"><path fill="#111111" d="M7.61 10.50L28.26 10.50L28.61 19.28L27.95 19.28Q26.41 14.63 25.22 12.93Q24.03 11.23 21.79 11.23L21.79 11.23L21.37 11.23L21.37 34.27L24.34 34.27L24.34 35L11.57 35L11.57 34.27L14.54 34.27L14.54 11.23L14.09 11.23Q11.85 11.23 10.62 13.00Q9.39 14.77 7.93 19.28L7.93 19.28L7.26 19.28L7.61 10.50ZM37.36 35.35Q32.84 35.35 30.59 33.02Q28.33 30.70 28.33 26.55Q28.33 22.40 30.87 20.20Q33.41 17.99 37.33 17.99L37.33 17.99Q45.27 17.99 44.95 25.97L44.95 25.97L35.09 25.97L35.09 27.34Q35.09 30.77 35.96 32.52Q36.84 34.27 39.01 34.27L39.01 34.27Q43.06 34.27 44.33 29.93L44.33 29.93L44.95 30.03Q44.29 32.55 42.56 33.95Q40.83 35.35 37.36 35.35L37.36 35.35ZM35.12 23.55L35.12 25.27L38.73 25.27L38.73 23.55Q38.73 20.72 38.39 19.69Q38.06 18.65 37.06 18.65Q36.06 18.65 35.59 19.76Q35.12 20.86 35.12 23.55L35.12 23.55ZM46.22 18.97L46.22 18.34L54.65 18.34L54.65 21.56Q55.81 17.99 59.74 17.99Q63.68 17.99 64.52 21.77L64.52 21.77Q65.75 17.99 69.67 17.99L69.67 17.99Q74.81 17.99 74.81 23.84L74.81 23.84L74.81 34.37L76.77 34.37L76.77 35L67.08 35L67.08 34.37L68.30 34.37L68.30 22.99Q68.30 20.34 67.84 19.88L67.84 19.88Q67.64 19.67 67.28 19.67L67.28 19.67Q66.27 19.67 65.50 21.03Q64.73 22.40 64.73 24.50L64.73 24.50L64.73 34.37L65.99 34.37L65.99 35L57.00 35L57.00 34.37L58.22 34.37L58.22 22.99Q58.22 20.34 57.77 19.88L57.77 19.88Q57.56 19.67 57.21 19.67L57.21 19.67Q56.23 19.67 55.44 21.16Q54.65 22.64 54.65 24.71L54.65 24.71L54.65 34.37L55.91 34.37L55.91 35L46.22 35L46.22 34.37L48.14 34.37L48.14 18.97L46.22 18.97ZM90.07 25.59Q90.07 21.98 89.72 20.74Q89.37 19.49 88.36 19.49Q87.34 19.49 86.54 20.81Q85.73 22.12 85.73 24.32L85.73 24.32L85.73 30.73Q85.73 32.23 86.33 33.28Q86.92 34.34 88.08 34.34Q89.23 34.34 89.65 32.80Q90.07 31.25 90.07 27.41L90.07 27.41L90.07 25.59ZM77.37 18.34L85.66 18.34L85.66 21.10Q87.03 17.99 90.49 17.99L90.49 17.99Q93.50 17.99 95.16 20.16Q96.83 22.33 96.83 26.74Q96.83 31.15 95.02 33.25Q93.22 35.35 89.62 35.35L89.62 35.35Q87.94 35.35 87.10 34.93Q86.26 34.51 85.73 33.63L85.73 33.63L85.73 42.70L90.25 42.70L90.25 43.33L77.30 43.33L77.30 42.70L79.22 42.70L79.22 18.97L77.37 18.97L77.37 18.34ZM97.73 9.38L97.73 8.75L106.31 8.75L106.31 34.37L108.27 34.37L108.27 35L97.88 35L97.88 34.37L99.80 34.37L99.80 9.38L97.73 9.38ZM117.34 26.77L117.34 26.77L118.35 26.77L118.35 24.08Q118.35 20.75 117.98 19.62Q117.62 18.48 116.57 18.48L116.57 18.48Q115.94 18.48 115.43 18.81Q114.92 19.14 114.92 19.72Q114.92 20.30 115.13 20.89L115.13 20.89L116.01 20.89Q116.29 21.63 116.29 22.66Q116.29 23.70 115.41 24.45Q114.54 25.20 113.21 25.20L113.21 25.20Q110.20 25.20 110.20 22.29L110.20 22.29Q110.20 17.99 117.51 17.99L117.51 17.99Q121.68 17.99 123.27 19.41Q124.86 20.82 124.86 24.60L124.86 24.60L124.86 31.71Q124.86 33.53 125.88 33.53L125.88 33.53Q127.07 33.53 127.28 29.93L127.28 29.93L127.80 29.96Q127.66 33.04 126.65 34.20Q125.63 35.35 123.32 35.35L123.32 35.35Q119.12 35.35 118.49 32.76L118.49 32.76Q118.04 34.09 117.13 34.72Q116.22 35.35 114.47 35.35L114.47 35.35Q109.29 35.35 109.29 31.11L109.29 31.11Q109.29 28.63 111.26 27.70Q113.24 26.77 117.34 26.77ZM115.94 31.08Q115.94 32.90 116.13 33.42Q116.32 33.95 116.86 33.95Q117.41 33.95 117.88 33.06Q118.35 32.16 118.35 30.59L118.35 30.59L118.35 27.34L118.11 27.34Q115.94 27.34 115.94 30.52L115.94 30.52L115.94 31.08ZM129.38 29.99L129.38 29.99L129.38 18.97L127.45 18.97L127.45 18.34L129.38 18.34L129.38 13.82L135.89 12.21L135.89 18.34L140.44 18.34L140.44 18.97L135.89 18.97L135.89 30.77Q135.89 32.41 136.22 33.18Q136.55 33.95 137.60 33.95Q138.65 33.95 139.44 32.90Q140.22 31.85 140.47 30.03L140.47 30.03L141.06 30.10Q140.78 32.52 139.53 33.93Q138.27 35.35 135.36 35.35Q132.46 35.35 130.92 34.20Q129.38 33.04 129.38 29.99ZM150.62 35.35Q146.10 35.35 143.85 33.02Q141.59 30.70 141.59 26.55Q141.59 22.40 144.13 20.20Q146.66 17.99 150.59 17.99L150.59 17.99Q158.53 17.99 158.22 25.97L158.22 25.97L148.34 25.97L148.34 27.34Q148.34 30.77 149.22 32.52Q150.09 34.27 152.26 34.27L152.26 34.27Q156.32 34.27 157.59 29.93L157.59 29.93L158.22 30.03Q157.55 32.55 155.82 33.95Q154.09 35.35 150.62 35.35L150.62 35.35ZM148.38 23.55L148.38 25.27L151.99 25.27L151.99 23.55Q151.99 20.72 151.65 19.69Q151.32 18.65 150.32 18.65Q149.32 18.65 148.85 19.76Q148.38 20.86 148.38 23.55L148.38 23.55ZM176.80 34.62L176.80 34.62Q178.55 34.62 179.90 33.67Q181.25 32.73 181.25 30.82Q181.25 28.91 179.79 27.89Q178.34 26.88 175.66 26.13Q172.99 25.38 171.78 24.81Q170.57 24.25 169.49 23.34L169.49 23.34Q167.31 21.52 167.31 17.71L167.31 17.71Q167.31 14.59 169.54 12.35Q171.76 10.11 175.61 10.11L175.61 10.11Q177.47 10.11 179.48 10.66Q181.49 11.20 181.98 11.20Q182.47 11.20 182.86 10.50L182.86 10.50L183.24 10.50L183.49 17.57L182.93 17.57Q181.25 14.52 179.41 12.69Q177.57 10.85 175.42 10.85Q173.27 10.85 172.08 11.85Q170.89 12.84 170.89 14.51Q170.89 16.17 172.30 17.06Q173.72 17.95 175.79 18.51Q177.85 19.07 178.50 19.28Q179.15 19.49 180.11 19.86Q181.07 20.23 181.68 20.63Q182.30 21.03 182.98 21.65Q183.66 22.26 184.05 22.99L184.05 22.99Q184.99 24.67 184.99 26.98L184.99 26.98Q184.99 30.77 182.63 33.06Q180.27 35.35 176.42 35.35L176.42 35.35Q174.42 35.35 171.85 34.83Q169.28 34.30 169.00 34.30L169.00 34.30Q168.51 34.30 168.05 35.35L168.05 35.35L167.56 35.35L167.21 27.02L167.81 27.02Q169.34 30.06 171.74 32.34Q174.14 34.62 176.80 34.62ZM188.53 29.99L188.53 29.99L188.53 18.97L186.60 18.97L186.60 18.34L188.53 18.34L188.53 13.82L195.04 12.21L195.04 18.34L199.59 18.34L199.59 18.97L195.04 18.97L195.04 30.77Q195.04 32.41 195.37 33.18Q195.70 33.95 196.75 33.95Q197.80 33.95 198.59 32.90Q199.38 31.85 199.62 30.03L199.62 30.03L200.22 30.10Q199.94 32.52 198.68 33.93Q197.42 35.35 194.51 35.35Q191.61 35.35 190.06 34.20Q188.53 33.04 188.53 29.99ZM220.87 34.37L220.87 35L212.88 35L212.50 32.45Q211.94 33.84 210.84 34.60Q209.73 35.35 207.56 35.35L207.56 35.35Q202.14 35.35 202.14 29.50L202.14 29.50L202.14 18.97L200.18 18.97L200.18 18.34L208.65 18.34L208.65 30.34Q208.65 32.45 208.95 33.11Q209.25 33.77 210.14 33.77Q211.03 33.77 211.73 32.69Q212.43 31.61 212.43 29.68L212.43 29.68L212.43 18.97L210.82 18.97L210.82 18.34L218.94 18.34L218.94 34.37L220.87 34.37ZM228.67 27.75Q228.67 31.43 229.06 32.64Q229.44 33.84 230.47 33.84Q231.50 33.84 232.26 32.94Q233.01 32.02 233.01 30.24L233.01 30.24L233.01 22.61Q233.01 21.10 232.41 20.05Q231.82 19.00 230.66 19.00Q229.51 19.00 229.09 20.54Q228.67 22.09 228.67 25.93L228.67 25.93L228.67 27.75ZM241.24 35L233.47 35L233.08 32.55Q231.89 35.35 228.25 35.35L228.25 35.35Q225.24 35.35 223.58 33.18Q221.91 31.01 221.91 26.70L221.91 26.70Q221.91 17.99 228.84 17.99L228.84 17.99Q231.93 17.99 232.91 19.70L232.91 19.70L232.91 9.38L230.77 9.38L230.77 8.75L239.52 8.75L239.52 34.37L241.24 34.37L241.24 35ZM247.29 15.92Q245.44 15.92 244.65 14.98Q243.86 14.03 243.86 12.63Q243.86 11.23 244.72 10.32Q245.58 9.41 247.33 9.41Q249.08 9.41 249.99 10.24Q250.90 11.06 250.90 12.58Q250.90 14.10 250.02 15.01Q249.15 15.92 247.29 15.92ZM242.01 18.97L242.01 18.34L250.58 18.34L250.58 34.37L252.54 34.37L252.54 35L242.15 35L242.15 34.37L244.07 34.37L244.07 18.97L242.01 18.97ZM264.55 28.11L264.55 28.11L264.55 25.13Q264.55 21.73 264.18 20.18Q263.81 18.62 262.48 18.62L262.48 18.62Q261.71 18.62 261.24 19.06Q260.77 19.49 260.56 20.51L260.56 20.51Q260.24 22.09 260.24 25.30L260.24 25.30L260.24 28.04Q260.24 31.85 260.47 32.62Q260.69 33.39 260.94 33.88L260.94 33.88Q261.32 34.72 262.44 34.72L262.44 34.72Q263.81 34.72 264.23 33.15L264.23 33.15Q264.55 32.02 264.55 28.11ZM262.38 35.35Q258 35.35 255.76 33.11Q253.52 30.87 253.52 26.69Q253.52 22.50 255.92 20.25Q258.31 17.99 262.66 17.99Q267.00 17.99 269.13 20.07Q271.26 22.16 271.26 26.42L271.26 26.42Q271.26 35.35 262.38 35.35L262.38 35.35Z"/></g>
        
      </svg>
    